<svg xmlns="http://www.w3.org/2000/svg" viewBox="0 0 41.79 37.12"><g><g><path fill="#ff2351" d="M11.13 25.52v9.12H8.67v2.48H11.14v-2.48h2.51v2.48h9.7V25.26l3.51-6.62h-1.97v-2.48h5.81L39.27 0H23.42v2.48h2.3l-4.75 8.82 1.28 2.32L21 15.94l-1.27-2.32L12.21 0H0l8.65 16.16H6.63v2.48H15.35v2.47H4.15v2.48h5.95l1.03 1.93z"/><path fill="#ff2351" d="M1.68 16.16h2.48v2.47H1.68z"/><path fill="#00d8eb" d="M11.05 18.64H9.98h5.37v2.47H11.3l2.36 4.41v11.6H28.5v-2.48h-2.63v-9.38l2.2-4.15h4.51v-2.47h-7.69v-2.48h8.33L41.8 0H29.58L28.5 2l-.25.48-6 11.14-1.28-2.32L14.74 0H2.52l9.98 18.64h-1.45z"/><path fill="#00d8eb" d="M35.05 16.16h2.48v2.47h-2.48zM32.58 21.11h2.47v2.47h-2.47z"/><path fill="#000b34" d="M11.05 18.64H9.98h5.37v2.47H11.3l2.36 4.41v11.6h9.69V25.26l3.51-6.62h-1.97v-2.48h5.81L39.27 0h-9.69L28.5 2l-.25.48-6 11.14L21 15.94l-1.27-2.32L12.21 0H2.52l9.98 18.64h-1.45z"/></g></g></svg>